<svg width="848" height="560" viewBox="0 0 848 560" fill="none" xmlns="http://www.w3.org/2000/svg">
<path fill-rule="evenodd" clip-rule="evenodd" d="M157.748 80.9937C157.748 80.9937 271.823 251.463 250.095 328.139C228.366 404.816 199.169 447.262 106.823 423.985C138.737 395.232 203.442 388.75 216.824 302.809C230.923 212.241 157.748 80.9937 157.748 80.9937Z" fill="#FBF5F5"/>
<path fill-rule="evenodd" clip-rule="evenodd" d="M25.5084 340.4L63.092 296.468L104.774 322.967L56.2578 388.516L25.5084 340.4Z" fill="#C7E59E"/>
<path fill-rule="evenodd" clip-rule="evenodd" d="M146.457 369.688L162.173 309.021L204.54 317.389L188.823 397.582L146.457 369.688Z" fill="#E788A7"/>
<path fill-rule="evenodd" clip-rule="evenodd" d="M70.6088 318.783L147.825 332.729L140.307 367.596L64.4572 364.109L70.6088 318.783Z" fill="#E788A7"/>
<path fill-rule="evenodd" clip-rule="evenodd" d="M232.555 387.121L223.673 347.373L180.623 363.412L189.507 413.62L232.555 387.121Z" fill="#E788A7"/>
<path fill-rule="evenodd" clip-rule="evenodd" d="M216.839 335.519L198.39 404.554L161.49 379.451L175.839 297.166L216.839 335.519Z" fill="#8DB4C6"/>
<path fill-rule="evenodd" clip-rule="evenodd" d="M84.2747 379.451L134.157 302.744L166.274 339.005L123.907 391.306L84.2747 379.451Z" fill="#8DB4C6"/>
<path fill-rule="evenodd" clip-rule="evenodd" d="M111.607 355.045L189.507 343.19L188.823 382.937L120.491 393.397L111.607 355.045Z" fill="#E7AABE"/>
<path fill-rule="evenodd" clip-rule="evenodd" d="M75.3908 334.124L159.441 389.911L134.84 439.421L48.0594 391.306L75.3908 334.124Z" fill="#8BC3DD"/>
<path fill-rule="evenodd" clip-rule="evenodd" d="M149.874 419.896L166.958 363.412L206.59 364.11L205.223 410.133L149.874 419.896Z" fill="#8BC3DD"/>
<path fill-rule="evenodd" clip-rule="evenodd" d="M22.0922 325.059L82.2237 322.269V409.436C82.2237 409.436 46.0085 385.727 45.3249 382.937C44.6412 380.148 22.0922 325.059 22.0922 325.059Z" fill="#8DB4C6"/>
<path fill-rule="evenodd" clip-rule="evenodd" d="M43.2742 359.926L70.6087 350.86L121.858 411.527L110.242 424.079L43.2742 359.926Z" fill="#E7AABE"/>
<path fill-rule="evenodd" clip-rule="evenodd" d="M86.3247 406.646L145.774 358.53L192.24 411.527L146.457 435.934L86.3247 406.646Z" fill="#E788A7"/>
<path fill-rule="evenodd" clip-rule="evenodd" d="M259.889 345.979L203.172 305.534L178.573 339.005L251.006 391.306L259.889 345.979Z" fill="#C7E59E"/>
<mask id="mask0_17_23" style="mask-type:alpha" maskUnits="userSpaceOnUse" x="20" y="295" width="241" height="147">
<path fill-rule="evenodd" clip-rule="evenodd" d="M25.5079 340.4L63.0915 296.468L104.774 322.967L56.2573 388.516L25.5079 340.4Z" fill="#C7E59E"/>
<path fill-rule="evenodd" clip-rule="evenodd" d="M146.457 369.688L162.173 309.021L204.54 317.389L188.823 397.582L146.457 369.688Z" fill="#E788A7"/>
<path fill-rule="evenodd" clip-rule="evenodd" d="M70.6083 318.783L147.824 332.729L140.306 367.596L64.4567 364.109L70.6083 318.783Z" fill="#E788A7"/>
<path fill-rule="evenodd" clip-rule="evenodd" d="M232.554 387.121L223.673 347.373L180.622 363.412L189.506 413.62L232.554 387.121Z" fill="#E788A7"/>
<path fill-rule="evenodd" clip-rule="evenodd" d="M216.838 335.519L198.39 404.554L161.489 379.451L175.839 297.166L216.838 335.519Z" fill="#8DB4C6"/>
<path fill-rule="evenodd" clip-rule="evenodd" d="M84.2742 379.451L134.157 302.744L166.273 339.005L123.907 391.306L84.2742 379.451Z" fill="#8DB4C6"/>
<path fill-rule="evenodd" clip-rule="evenodd" d="M111.607 355.045L189.506 343.19L188.823 382.937L120.491 393.397L111.607 355.045Z" fill="#E7AABE"/>
<path fill-rule="evenodd" clip-rule="evenodd" d="M75.3904 334.124L159.44 389.911L134.839 439.421L48.0591 391.306L75.3904 334.124Z" fill="#8BC3DD"/>
<path fill-rule="evenodd" clip-rule="evenodd" d="M149.873 419.896L166.957 363.412L206.59 364.11L205.222 410.133L149.873 419.896Z" fill="#8BC3DD"/>
<path fill-rule="evenodd" clip-rule="evenodd" d="M22.0917 325.059L82.2232 322.269V409.436C82.2232 409.436 46.008 385.727 45.3244 382.937C44.6407 380.148 22.0917 325.059 22.0917 325.059Z" fill="#8DB4C6"/>
<path fill-rule="evenodd" clip-rule="evenodd" d="M43.2737 359.926L70.6082 350.86L121.858 411.527L110.242 424.079L43.2737 359.926Z" fill="#E7AABE"/>
<path fill-rule="evenodd" clip-rule="evenodd" d="M86.3242 406.646L145.773 358.53L192.24 411.527L146.457 435.934L86.3242 406.646Z" fill="#E788A7"/>
<path fill-rule="evenodd" clip-rule="evenodd" d="M259.889 345.979L203.172 305.534L178.572 339.005L251.006 391.306L259.889 345.979Z" fill="#C7E59E"/>
</mask>
<g mask="url(#mask0_17_23)">
<rect x="20.8682" y="295.207" width="239.982" height="146.076" fill="white" fill-opacity="0.411765"/>
</g>
<path d="M174.129 49.3768C181.077 35.9306 180.085 38.4213 181.574 40.4129C183.062 42.4056 184.056 51.3691 188.025 56.3494C191.996 61.3295 194.477 67.8033 190.011 64.3172C185.545 60.8318 176.115 70.7914 166.686 75.2733C157.256 79.7557 263.958 206.096 263.958 337.223C263.958 550.569 -4.44029 479.924 9.36023 283.439C15.337 198.365 82.5861 129.931 115.501 101.273C100.696 119.13 78.9879 149.74 52.3241 200.115C-1.72735 302.234 59.0392 403.77 113.532 411.888C265.965 434.596 185.73 162.278 141.557 83.0604L138.212 80.2459C140.397 77.2831 142.656 74.2231 143.36 73.2811C144.848 71.2892 143.36 71.2888 139.886 69.2967C136.411 67.3047 135.915 64.3173 136.907 60.8318C137.899 57.3453 138.893 56.8475 147.33 48.8797C155.767 40.9113 155.767 39.417 154.278 43.4012C152.789 47.3849 153.285 52.3654 154.774 59.8358C156.263 67.3046 162.218 65.8115 164.699 65.8113C167.182 65.8113 167.182 62.8225 174.129 49.3768Z" fill="white"/>
<mask id="mask1_17_23" style="mask-type:alpha" maskUnits="userSpaceOnUse" x="8" y="38" width="256" height="430">
<path d="M174.129 49.3765C181.077 35.9303 180.085 38.421 181.574 40.4126C183.062 42.4054 184.056 51.3688 188.025 56.3491C191.996 61.3292 194.477 67.803 190.011 64.3169C185.546 60.8315 176.115 70.7911 166.687 75.2729C157.256 79.7554 263.958 206.096 263.958 337.223C263.958 550.569 -4.44017 479.924 9.36035 283.439C15.3371 198.364 82.5862 129.931 115.501 101.273C100.696 119.129 78.988 149.74 52.3242 200.115C-1.72721 302.234 59.0393 403.77 113.532 411.888C265.965 434.596 185.73 162.278 141.557 83.0601L138.212 80.2456C140.397 77.2828 142.656 74.2228 143.36 73.2808C144.848 71.2889 143.36 71.2885 139.886 69.2964C136.411 67.3044 135.915 64.3169 136.907 60.8315C137.899 57.345 138.893 56.8472 147.33 48.8794C155.767 40.911 155.767 39.4167 154.278 43.4009C152.789 47.3846 153.285 52.365 154.774 59.8354C156.264 67.3043 162.218 65.8112 164.699 65.811C167.182 65.811 167.182 62.8221 174.129 49.3765Z" fill="white"/>
</mask>
<g mask="url(#mask1_17_23)">
<path fill-rule="evenodd" clip-rule="evenodd" d="M178.715 47.522C178.715 47.522 179.78 56.3723 182.548 57.7339C185.314 59.0951 179.993 56.1452 176.16 61.1369C172.33 66.1297 177.225 59.3222 176.16 55.0101C175.096 50.6985 178.715 47.522 178.715 47.522Z" fill="#F1F1F1"/>
</g>
<mask id="mask2_17_23" style="mask-type:alpha" maskUnits="userSpaceOnUse" x="8" y="38" width="256" height="430">
<path d="M174.129 49.3765C181.077 35.9303 180.085 38.421 181.574 40.4126C183.062 42.4054 184.056 51.3688 188.025 56.3491C191.996 61.3292 194.477 67.803 190.011 64.3169C185.546 60.8315 176.115 70.7911 166.687 75.2729C157.256 79.7554 263.958 206.096 263.958 337.223C263.958 550.569 -4.44017 479.924 9.36035 283.439C15.3371 198.364 82.5862 129.931 115.501 101.273C100.696 119.129 78.988 149.74 52.3242 200.115C-1.72721 302.234 59.0393 403.77 113.532 411.888C265.965 434.596 185.73 162.278 141.557 83.0601L138.212 80.2456C140.397 77.2828 142.656 74.2228 143.36 73.2808C144.848 71.2889 143.36 71.2885 139.886 69.2964C136.411 67.3044 135.915 64.3169 136.907 60.8315C137.899 57.345 138.893 56.8472 147.33 48.8794C155.767 40.911 155.767 39.4167 154.278 43.4009C152.789 47.3846 153.285 52.365 154.774 59.8354C156.264 67.3043 162.218 65.8112 164.699 65.811C167.182 65.811 167.182 62.8221 174.129 49.3765Z" fill="white"/>
</mask>
<g mask="url(#mask2_17_23)">
<path fill-rule="evenodd" clip-rule="evenodd" d="M151.523 51.5915C149.785 55.8516 148.049 65.0107 150.944 66.9277C153.839 68.8447 141.292 66.5015 145.152 60.5375C149.013 54.5735 153.261 47.3314 151.523 51.5915Z" fill="#F1F1F1"/>
</g>
<mask id="mask3_17_23" style="mask-type:alpha" maskUnits="userSpaceOnUse" x="8" y="38" width="256" height="430">
<path d="M174.129 49.3765C181.077 35.9303 180.085 38.421 181.574 40.4126C183.062 42.4054 184.056 51.3688 188.025 56.3491C191.996 61.3292 194.477 67.803 190.011 64.3169C185.546 60.8315 176.115 70.7911 166.687 75.2729C157.256 79.7554 263.958 206.096 263.958 337.223C263.958 550.569 -4.44017 479.924 9.36035 283.439C15.3371 198.364 82.5862 129.931 115.501 101.273C100.696 119.129 78.988 149.74 52.3242 200.115C-1.72721 302.234 59.0393 403.77 113.532 411.888C265.965 434.596 185.73 162.278 141.557 83.0601L138.212 80.2456C140.397 77.2828 142.656 74.2228 143.36 73.2808C144.848 71.2889 143.36 71.2885 139.886 69.2964C136.411 67.3044 135.915 64.3169 136.907 60.8315C137.899 57.345 138.893 56.8472 147.33 48.8794C155.767 40.911 155.767 39.4167 154.278 43.4009C152.789 47.3846 153.285 52.365 154.774 59.8354C156.264 67.3043 162.218 65.8112 164.699 65.811C167.182 65.811 167.182 62.8221 174.129 49.3765Z" fill="white"/>
</mask>
<g mask="url(#mask3_17_23)">
<path fill-rule="evenodd" clip-rule="evenodd" d="M159.468 68.64C162.005 69.8475 163.199 72.4362 162.131 74.4211C161.926 74.8027 161.652 75.1332 161.325 75.411C162.371 75.1147 163.246 74.4948 163.732 73.5896C164.799 71.6047 163.608 69.0161 161.069 67.8085C159.019 66.8326 156.719 67.0578 155.346 68.2267C156.594 67.8737 158.086 67.9825 159.468 68.64Z" fill="#F1F1F1"/>
</g>
<mask id="mask4_17_23" style="mask-type:alpha" maskUnits="userSpaceOnUse" x="8" y="38" width="256" height="430">
<path d="M174.13 49.3765C181.078 35.9308 180.085 38.421 181.574 40.4126C183.062 42.4047 184.057 51.3685 188.026 56.3491C191.997 61.3292 194.478 67.803 190.012 64.3169C185.546 60.8313 176.115 70.7911 166.686 75.2729C157.259 79.7586 263.959 206.098 263.959 337.224C263.958 550.569 -4.43884 479.925 9.36121 283.44C15.3379 198.365 82.5883 129.931 115.503 101.273C100.698 119.129 78.9892 149.739 52.3251 200.115C-1.72661 302.234 59.04 403.771 113.533 411.889C265.965 434.597 185.731 162.279 141.557 83.061L138.212 80.2466C140.397 77.2836 142.657 74.2241 143.361 73.2817C144.849 71.2897 143.361 71.2894 139.887 69.2974C136.412 67.3053 135.915 64.3171 136.908 60.8315C137.9 57.345 138.894 56.8473 147.331 48.8794C155.768 40.9111 155.768 39.4169 154.279 43.4009C152.79 47.3846 153.286 52.365 154.775 59.8354C156.264 67.3045 162.219 65.8111 164.7 65.811C167.183 65.811 167.183 62.8222 174.13 49.3765Z" fill="white"/>
</mask>
<g mask="url(#mask4_17_23)">
<path fill-rule="evenodd" clip-rule="evenodd" d="M62.4201 292.284C57.2715 307.218 107.415 492.367 225.136 444.999C303.681 413.396 299.506 355.742 299.506 355.742C299.506 355.742 217.309 560.059 211.717 560.059C206.125 560.059 -137.281 430.785 62.4201 292.284Z" fill="#F7F7F7"/>
</g>
<path fill-rule="evenodd" clip-rule="evenodd" d="M278.492 116.361L107.394 59.0151L284.182 152.432L278.492 116.361Z" fill="#EC6C2F"/>
<mask id="mask5_17_23" style="mask-type:alpha" maskUnits="userSpaceOnUse" x="107" y="59" width="178" height="94">
<path fill-rule="evenodd" clip-rule="evenodd" d="M278.492 116.361L107.394 59.0151L284.182 152.432L278.492 116.361Z" fill="#EC6C2F"/>
</mask>
<g mask="url(#mask5_17_23)">
<path fill-rule="evenodd" clip-rule="evenodd" d="M288.946 136.402L83.5763 52.7368L254.083 78.9578L288.946 136.402Z" fill="#F18348"/>
</g>
<path fill-rule="evenodd" clip-rule="evenodd" d="M460.545 288.008C462.072 282.622 492.022 210.889 576.244 200.434C660.466 189.979 729.249 218.573 741.429 226.509C812.142 272.588 622.611 348.442 460.545 288.008Z" fill="#4B362C"/>
<path fill-rule="evenodd" clip-rule="evenodd" d="M455.937 300.042C455.937 300.042 495.826 211.285 574.432 198.295C653.039 185.306 698.335 206.277 709.039 216.389C719.743 226.499 707.257 291.99 624.046 320.522C540.836 349.056 455.937 300.042 455.937 300.042Z" fill="#F1EAEA"/>
<path d="M510.291 338.917C511.11 337.576 512.861 337.153 514.202 337.971C515.543 338.79 515.968 340.541 515.149 341.882L465.152 423.823C465.345 424.094 465.496 424.4 465.587 424.74L471.736 447.751C472.142 449.269 471.24 450.829 469.722 451.235C468.204 451.64 466.644 450.738 466.238 449.22L461.335 430.874L460.609 431.268L447.499 452.757C446.68 454.099 444.929 454.523 443.588 453.704C442.247 452.886 441.823 451.135 442.642 449.793L450.655 436.657L429.341 448.199C427.959 448.947 426.233 448.434 425.484 447.052C424.736 445.67 425.25 443.943 426.632 443.195L456.552 426.993L510.291 338.917Z" fill="#EC6C2F"/>
<path fill-rule="evenodd" clip-rule="evenodd" d="M343.938 129.776C343.938 129.776 409.294 331.938 521.603 235.785C614.39 156.344 706.101 239.118 706.101 239.118C706.101 239.118 702.292 387.33 518.869 339.126C335.447 290.923 326.172 129.11 326.172 129.11" fill="#FDFAE9"/>
<mask id="mask6_17_23" style="mask-type:alpha" maskUnits="userSpaceOnUse" x="326" y="129" width="381" height="220">
<path fill-rule="evenodd" clip-rule="evenodd" d="M343.938 129.776C343.938 129.776 409.294 331.938 521.603 235.785C614.39 156.344 706.101 239.118 706.101 239.118C706.101 239.118 702.292 387.33 518.869 339.126C335.447 290.923 326.172 129.11 326.172 129.11" fill="#FDFAE9"/>
</mask>
<g mask="url(#mask6_17_23)">
<path fill-rule="evenodd" clip-rule="evenodd" d="M339.845 188.382C337.328 195.837 490.758 416.314 650.485 310.208C798.979 211.562 706.425 333.348 706.425 333.348C706.425 333.348 622.185 430.672 502.404 402.087C382.623 373.503 339.845 188.382 339.845 188.382Z" fill="#F9F0DF"/>
</g>
<mask id="mask7_17_23" style="mask-type:alpha" maskUnits="userSpaceOnUse" x="326" y="129" width="381" height="220">
<path fill-rule="evenodd" clip-rule="evenodd" d="M343.938 129.776C343.938 129.776 409.294 331.938 521.603 235.785C614.39 156.344 706.101 239.118 706.101 239.118C706.101 239.118 702.292 387.33 518.869 339.126C335.447 290.923 326.172 129.11 326.172 129.11" fill="#FDFAE9"/>
</mask>
<g mask="url(#mask7_17_23)">
<path fill-rule="evenodd" clip-rule="evenodd" d="M296.267 81.61C274.315 91.4397 265.011 120.675 275.489 146.908C285.967 173.141 312.256 186.438 334.209 176.609C356.164 166.778 365.466 137.543 354.988 111.31C344.511 85.077 318.219 71.7798 296.267 81.61Z" fill="#F9F0DF"/>
</g>
<path fill-rule="evenodd" clip-rule="evenodd" d="M265.05 96.1902C253.137 119.272 264.419 148.975 290.25 162.534C316.081 176.094 346.679 168.375 358.593 145.293C370.507 122.212 359.225 92.508 333.393 78.9483C307.563 65.389 276.964 73.1082 265.05 96.1902Z" fill="#FDFAE9"/>
<path fill-rule="evenodd" clip-rule="evenodd" d="M471.81 280.582C471.81 280.582 512.969 182.418 599.035 165.872C685.103 149.325 735.569 170.881 747.653 181.606C759.736 192.332 748.009 264.257 657.353 297.923C566.698 331.589 471.81 280.582 471.81 280.582Z" fill="#F9F0DF"/>
<path fill-rule="evenodd" clip-rule="evenodd" d="M463.062 273.594C464.07 267.211 487.99 181.277 578.765 161.213C669.538 141.15 748.234 167.784 762.523 175.829C845.479 222.54 647.634 328.313 463.062 273.594Z" fill="#594135"/>
<mask id="mask8_17_23" style="mask-type:alpha" maskUnits="userSpaceOnUse" x="458" y="152" width="319" height="136">
<path fill-rule="evenodd" clip-rule="evenodd" d="M458.062 272.594C459.07 266.211 482.99 180.277 573.765 160.213C664.538 140.15 743.234 166.784 757.523 174.829C840.479 221.54 642.634 327.313 458.062 272.594Z" fill="#594135"/>
</mask>
<g mask="url(#mask8_17_23)">
<path opacity="0.301961" fill-rule="evenodd" clip-rule="evenodd" d="M723.185 180.014C686.589 180.014 656.799 162.488 655.593 140.598C650.33 146.401 647.335 153.06 647.335 160.14C647.335 182.67 677.623 200.934 714.984 200.934C752.347 200.934 782.634 182.67 782.634 160.14C782.634 159.678 782.601 159.221 782.576 158.762C771.094 171.425 748.804 180.014 723.185 180.014Z" fill="#47342B"/>
</g>
<mask id="mask9_17_23" style="mask-type:alpha" maskUnits="userSpaceOnUse" x="458" y="152" width="319" height="136">
<path fill-rule="evenodd" clip-rule="evenodd" d="M458.062 272.594C459.07 266.211 482.99 180.277 573.765 160.213C664.538 140.15 743.234 166.784 757.523 174.829C840.479 221.54 642.634 327.313 458.062 272.594Z" fill="#594135"/>
</mask>
<g mask="url(#mask9_17_23)">
<path opacity="0.301961" fill-rule="evenodd" clip-rule="evenodd" d="M719.767 214.881C683.171 214.881 653.384 197.355 652.176 175.465C646.914 181.268 643.919 187.926 643.919 195.007C643.919 217.537 674.207 235.8 711.569 235.8C748.929 235.8 779.218 217.537 779.218 195.007C779.218 194.545 779.185 194.087 779.16 193.629C767.678 206.291 745.387 214.881 719.767 214.881Z" fill="#47342B"/>
</g>
<mask id="mask10_17_23" style="mask-type:alpha" maskUnits="userSpaceOnUse" x="458" y="152" width="319" height="136">
<path fill-rule="evenodd" clip-rule="evenodd" d="M458.062 272.594C459.07 266.211 482.99 180.277 573.765 160.213C664.538 140.15 743.234 166.784 757.523 174.829C840.479 221.54 642.634 327.313 458.062 272.594Z" fill="#594135"/>
</mask>
<g mask="url(#mask10_17_23)">
<path opacity="0.301961" fill-rule="evenodd" clip-rule="evenodd" d="M721.136 246.261C684.539 246.261 654.751 228.735 653.543 206.844C648.28 212.648 645.285 219.306 645.285 226.387C645.285 248.916 675.573 267.181 712.934 267.181C750.297 267.181 780.585 248.916 780.585 226.387C780.585 225.924 780.552 225.467 780.527 225.008C769.044 237.671 746.755 246.261 721.136 246.261Z" fill="#47342B"/>
</g>
<mask id="mask11_17_23" style="mask-type:alpha" maskUnits="userSpaceOnUse" x="458" y="152" width="319" height="136">
<path fill-rule="evenodd" clip-rule="evenodd" d="M458.062 272.594C459.07 266.211 482.99 180.277 573.765 160.213C664.538 140.15 743.234 166.784 757.523 174.829C840.479 221.54 642.634 327.313 458.062 272.594Z" fill="#594135"/>
</mask>
<g mask="url(#mask11_17_23)">
<path opacity="0.301961" fill-rule="evenodd" clip-rule="evenodd" d="M690.385 275.548C653.789 275.548 624.001 258.023 622.792 236.132C617.53 241.936 614.535 248.593 614.535 255.674C614.535 278.204 644.823 296.468 682.185 296.468C719.548 296.468 749.835 278.204 749.835 255.674C749.835 255.212 749.802 254.755 749.777 254.296C738.294 266.959 716.005 275.548 690.385 275.548Z" fill="#47342B"/>
</g>
<path fill-rule="evenodd" clip-rule="evenodd" d="M452.265 282.187C452.265 282.187 486.598 183.109 571.256 161.174C655.916 139.238 707.689 157.057 720.465 166.786C733.242 176.515 726.454 247.889 638.388 286.932C550.322 325.975 452.265 282.187 452.265 282.187Z" fill="#FDFAE9"/>
<path d="M308.347 109.584C313.968 97.2882 294.158 87.2923 288.263 100.188" stroke="black" stroke-width="3.79418" stroke-miterlimit="16" stroke-linecap="round"/>
<path fill-rule="evenodd" clip-rule="evenodd" d="M353.724 70.5332H308.966C306.015 70.5332 303.622 73.0315 303.622 76.1124C303.622 79.1928 306.015 81.691 308.966 81.691H341.032C345.22 81.691 359.472 70.5332 353.724 70.5332Z" fill="#FDFAE9"/>
<path fill-rule="evenodd" clip-rule="evenodd" d="M352.357 77.5071H307.598C304.648 77.5071 302.255 80.0043 302.255 83.0852C302.255 86.1666 304.648 88.6639 307.598 88.6639H339.663C343.854 88.6639 358.104 77.5071 352.357 77.5071Z" fill="#FDFAE9"/>
<path d="M594.036 350.859L655.535 449.881L609.069 544.717" stroke="black" stroke-width="6.63982" stroke-miterlimit="16" stroke-linecap="round"/>
<path d="M621.369 519.613L592.668 534.257" stroke="black" stroke-width="6.63982" stroke-miterlimit="16" stroke-linecap="round"/>
<path d="M620.002 524.495L628.203 546.112" stroke="black" stroke-width="6.63982" stroke-miterlimit="16" stroke-linecap="round"/>
<mask id="mask12_17_23" style="mask-type:alpha" maskUnits="userSpaceOnUse" x="587" y="345" width="75" height="207">
<path d="M594.036 350.859L655.535 449.881L609.069 544.717" stroke="black" stroke-width="6.63982" stroke-miterlimit="16" stroke-linecap="round"/>
<path d="M621.369 519.613L592.668 534.257" stroke="black" stroke-width="6.63982" stroke-miterlimit="16" stroke-linecap="round"/>
<path d="M620.002 524.495L628.203 546.112" stroke="black" stroke-width="6.63982" stroke-miterlimit="16" stroke-linecap="round"/>
</mask>
<g mask="url(#mask12_17_23)">
<rect x="593.79" y="352.119" width="87.2662" height="219.114" fill="#ED6D2E"/>
</g>
</svg>
