<svg width="947" height="1571" viewBox="0 0 947 1571" fill="none" xmlns="http://www.w3.org/2000/svg">
<path fill-rule="evenodd" clip-rule="evenodd" d="M256.748 1018.99C256.748 1018.99 370.823 1189.46 349.095 1266.14C327.366 1342.82 298.169 1385.26 205.823 1361.99C237.737 1333.23 302.442 1326.75 315.824 1240.81C329.923 1150.24 256.748 1018.99 256.748 1018.99Z" fill="#FBF5F5"/>
<path fill-rule="evenodd" clip-rule="evenodd" d="M124.508 1278.4L162.092 1234.47L203.774 1260.97L155.258 1326.52L124.508 1278.4Z" fill="#C7E59E"/>
<path fill-rule="evenodd" clip-rule="evenodd" d="M245.457 1307.69L261.173 1247.02L303.54 1255.39L287.823 1335.58L245.457 1307.69Z" fill="#E788A7"/>
<path fill-rule="evenodd" clip-rule="evenodd" d="M169.609 1256.78L246.825 1270.73L239.307 1305.6L163.457 1302.11L169.609 1256.78Z" fill="#E788A7"/>
<path fill-rule="evenodd" clip-rule="evenodd" d="M331.555 1325.12L322.673 1285.37L279.623 1301.41L288.507 1351.62L331.555 1325.12Z" fill="#E788A7"/>
<path fill-rule="evenodd" clip-rule="evenodd" d="M315.839 1273.52L297.39 1342.55L260.49 1317.45L274.839 1235.17L315.839 1273.52Z" fill="#8DB4C6"/>
<path fill-rule="evenodd" clip-rule="evenodd" d="M183.275 1317.45L233.157 1240.74L265.274 1277L222.907 1329.31L183.275 1317.45Z" fill="#8DB4C6"/>
<path fill-rule="evenodd" clip-rule="evenodd" d="M210.607 1293.04L288.507 1281.19L287.823 1320.94L219.491 1331.4L210.607 1293.04Z" fill="#E7AABE"/>
<path fill-rule="evenodd" clip-rule="evenodd" d="M174.391 1272.12L258.441 1327.91L233.84 1377.42L147.059 1329.31L174.391 1272.12Z" fill="#8BC3DD"/>
<path fill-rule="evenodd" clip-rule="evenodd" d="M248.874 1357.9L265.958 1301.41L305.59 1302.11L304.223 1348.13L248.874 1357.9Z" fill="#8BC3DD"/>
<path fill-rule="evenodd" clip-rule="evenodd" d="M121.092 1263.06L181.224 1260.27V1347.44C181.224 1347.44 145.009 1323.73 144.325 1320.94C143.641 1318.15 121.092 1263.06 121.092 1263.06Z" fill="#8DB4C6"/>
<path fill-rule="evenodd" clip-rule="evenodd" d="M142.274 1297.93L169.609 1288.86L220.858 1349.53L209.242 1362.08L142.274 1297.93Z" fill="#E7AABE"/>
<path fill-rule="evenodd" clip-rule="evenodd" d="M185.325 1344.65L244.774 1296.53L291.24 1349.53L245.457 1373.93L185.325 1344.65Z" fill="#E788A7"/>
<path fill-rule="evenodd" clip-rule="evenodd" d="M358.889 1283.98L302.172 1243.53L277.573 1277L350.006 1329.31L358.889 1283.98Z" fill="#C7E59E"/>
<mask id="mask0_17_23" style="mask-type:alpha" maskUnits="userSpaceOnUse" x="119" y="1233" width="241" height="147">
<path fill-rule="evenodd" clip-rule="evenodd" d="M124.508 1278.4L162.092 1234.47L203.774 1260.97L155.257 1326.52L124.508 1278.4Z" fill="#C7E59E"/>
<path fill-rule="evenodd" clip-rule="evenodd" d="M245.457 1307.69L261.173 1247.02L303.54 1255.39L287.823 1335.58L245.457 1307.69Z" fill="#E788A7"/>
<path fill-rule="evenodd" clip-rule="evenodd" d="M169.608 1256.78L246.824 1270.73L239.306 1305.6L163.457 1302.11L169.608 1256.78Z" fill="#E788A7"/>
<path fill-rule="evenodd" clip-rule="evenodd" d="M331.554 1325.12L322.673 1285.37L279.622 1301.41L288.506 1351.62L331.554 1325.12Z" fill="#E788A7"/>
<path fill-rule="evenodd" clip-rule="evenodd" d="M315.838 1273.52L297.39 1342.55L260.489 1317.45L274.839 1235.17L315.838 1273.52Z" fill="#8DB4C6"/>
<path fill-rule="evenodd" clip-rule="evenodd" d="M183.274 1317.45L233.157 1240.74L265.273 1277L222.907 1329.31L183.274 1317.45Z" fill="#8DB4C6"/>
<path fill-rule="evenodd" clip-rule="evenodd" d="M210.607 1293.04L288.506 1281.19L287.823 1320.94L219.491 1331.4L210.607 1293.04Z" fill="#E7AABE"/>
<path fill-rule="evenodd" clip-rule="evenodd" d="M174.39 1272.12L258.44 1327.91L233.839 1377.42L147.059 1329.31L174.39 1272.12Z" fill="#8BC3DD"/>
<path fill-rule="evenodd" clip-rule="evenodd" d="M248.873 1357.9L265.957 1301.41L305.59 1302.11L304.222 1348.13L248.873 1357.9Z" fill="#8BC3DD"/>
<path fill-rule="evenodd" clip-rule="evenodd" d="M121.092 1263.06L181.223 1260.27V1347.44C181.223 1347.44 145.008 1323.73 144.324 1320.94C143.641 1318.15 121.092 1263.06 121.092 1263.06Z" fill="#8DB4C6"/>
<path fill-rule="evenodd" clip-rule="evenodd" d="M142.274 1297.93L169.608 1288.86L220.858 1349.53L209.242 1362.08L142.274 1297.93Z" fill="#E7AABE"/>
<path fill-rule="evenodd" clip-rule="evenodd" d="M185.324 1344.65L244.773 1296.53L291.24 1349.53L245.457 1373.93L185.324 1344.65Z" fill="#E788A7"/>
<path fill-rule="evenodd" clip-rule="evenodd" d="M358.889 1283.98L302.172 1243.53L277.572 1277L350.006 1329.31L358.889 1283.98Z" fill="#C7E59E"/>
</mask>
<g mask="url(#mask0_17_23)">
<rect x="119.868" y="1233.21" width="239.982" height="146.076" fill="white" fill-opacity="0.411765"/>
</g>
<path d="M273.129 987.377C280.077 973.931 279.085 976.421 280.574 978.413C282.062 980.406 283.056 989.369 287.025 994.349C290.996 999.329 293.477 1005.8 289.011 1002.32C284.546 998.832 275.115 1008.79 265.687 1013.27C256.256 1017.76 362.958 1144.1 362.958 1275.22C362.958 1488.57 94.5598 1417.92 108.36 1221.44C114.337 1136.36 181.586 1067.93 214.501 1039.27C199.696 1057.13 177.988 1087.74 151.324 1138.11C97.2728 1240.23 158.039 1341.77 212.532 1349.89C364.965 1372.6 284.73 1100.28 240.557 1021.06L237.212 1018.25C239.397 1015.28 241.656 1012.22 242.36 1011.28C243.848 1009.29 242.36 1009.29 238.886 1007.3C235.411 1005.3 234.915 1002.32 235.907 998.832C236.899 995.345 237.893 994.847 246.33 986.88C254.767 978.911 254.767 977.417 253.278 981.401C251.789 985.385 252.285 990.365 253.774 997.836C255.264 1005.3 261.218 1003.81 263.699 1003.81C266.182 1003.81 266.182 1000.82 273.129 987.377Z" fill="white"/>
<mask id="mask1_17_23" style="mask-type:alpha" maskUnits="userSpaceOnUse" x="107" y="976" width="256" height="430">
<path d="M273.129 987.376C280.077 973.93 279.085 976.421 280.574 978.412C282.062 980.405 283.056 989.369 287.025 994.349C290.996 999.329 293.477 1005.8 289.011 1002.32C284.546 998.831 275.115 1008.79 265.687 1013.27C256.256 1017.76 362.958 1144.1 362.958 1275.22C362.958 1488.57 94.5598 1417.92 108.36 1221.44C114.337 1136.36 181.586 1067.93 214.501 1039.27C199.696 1057.13 177.988 1087.74 151.324 1138.11C97.2728 1240.23 158.039 1341.77 212.532 1349.89C364.965 1372.6 284.73 1100.28 240.557 1021.06L237.212 1018.25C239.397 1015.28 241.656 1012.22 242.36 1011.28C243.848 1009.29 242.36 1009.29 238.886 1007.3C235.411 1005.3 234.915 1002.32 235.907 998.831C236.899 995.345 237.893 994.847 246.33 986.879C254.767 978.911 254.767 977.416 253.278 981.401C251.789 985.384 252.285 990.365 253.774 997.835C255.264 1005.3 261.218 1003.81 263.699 1003.81C266.182 1003.81 266.182 1000.82 273.129 987.376Z" fill="white"/>
</mask>
<g mask="url(#mask1_17_23)">
<path fill-rule="evenodd" clip-rule="evenodd" d="M277.715 985.522C277.715 985.522 278.78 994.372 281.548 995.734C284.314 997.095 278.993 994.145 275.16 999.137C271.33 1004.13 276.225 997.322 275.16 993.01C274.096 988.698 277.715 985.522 277.715 985.522Z" fill="#F1F1F1"/>
</g>
<mask id="mask2_17_23" style="mask-type:alpha" maskUnits="userSpaceOnUse" x="107" y="976" width="256" height="430">
<path d="M273.129 987.376C280.077 973.93 279.085 976.421 280.574 978.412C282.062 980.405 283.056 989.369 287.025 994.349C290.996 999.329 293.477 1005.8 289.011 1002.32C284.546 998.831 275.115 1008.79 265.687 1013.27C256.256 1017.76 362.958 1144.1 362.958 1275.22C362.958 1488.57 94.5598 1417.92 108.36 1221.44C114.337 1136.36 181.586 1067.93 214.501 1039.27C199.696 1057.13 177.988 1087.74 151.324 1138.11C97.2728 1240.23 158.039 1341.77 212.532 1349.89C364.965 1372.6 284.73 1100.28 240.557 1021.06L237.212 1018.25C239.397 1015.28 241.656 1012.22 242.36 1011.28C243.848 1009.29 242.36 1009.29 238.886 1007.3C235.411 1005.3 234.915 1002.32 235.907 998.831C236.899 995.345 237.893 994.847 246.33 986.879C254.767 978.911 254.767 977.416 253.278 981.401C251.789 985.384 252.285 990.365 253.774 997.835C255.264 1005.3 261.218 1003.81 263.699 1003.81C266.182 1003.81 266.182 1000.82 273.129 987.376Z" fill="white"/>
</mask>
<g mask="url(#mask2_17_23)">
<path fill-rule="evenodd" clip-rule="evenodd" d="M250.523 989.591C248.785 993.851 247.049 1003.01 249.944 1004.93C252.839 1006.84 240.292 1004.5 244.152 998.537C248.013 992.573 252.261 985.331 250.523 989.591Z" fill="#F1F1F1"/>
</g>
<mask id="mask3_17_23" style="mask-type:alpha" maskUnits="userSpaceOnUse" x="107" y="976" width="256" height="430">
<path d="M273.129 987.376C280.077 973.93 279.085 976.421 280.574 978.412C282.062 980.405 283.056 989.369 287.025 994.349C290.996 999.329 293.477 1005.8 289.011 1002.32C284.546 998.831 275.115 1008.79 265.687 1013.27C256.256 1017.76 362.958 1144.1 362.958 1275.22C362.958 1488.57 94.5598 1417.92 108.36 1221.44C114.337 1136.36 181.586 1067.93 214.501 1039.27C199.696 1057.13 177.988 1087.74 151.324 1138.11C97.2728 1240.23 158.039 1341.77 212.532 1349.89C364.965 1372.6 284.73 1100.28 240.557 1021.06L237.212 1018.25C239.397 1015.28 241.656 1012.22 242.36 1011.28C243.848 1009.29 242.36 1009.29 238.886 1007.3C235.411 1005.3 234.915 1002.32 235.907 998.831C236.899 995.345 237.893 994.847 246.33 986.879C254.767 978.911 254.767 977.416 253.278 981.401C251.789 985.384 252.285 990.365 253.774 997.835C255.264 1005.3 261.218 1003.81 263.699 1003.81C266.182 1003.81 266.182 1000.82 273.129 987.376Z" fill="white"/>
</mask>
<g mask="url(#mask3_17_23)">
<path fill-rule="evenodd" clip-rule="evenodd" d="M258.468 1006.64C261.005 1007.85 262.199 1010.44 261.131 1012.42C260.926 1012.8 260.652 1013.13 260.325 1013.41C261.371 1013.11 262.246 1012.49 262.732 1011.59C263.799 1009.6 262.608 1007.02 260.069 1005.81C258.019 1004.83 255.719 1005.06 254.346 1006.23C255.594 1005.87 257.086 1005.98 258.468 1006.64Z" fill="#F1F1F1"/>
</g>
<mask id="mask4_17_23" style="mask-type:alpha" maskUnits="userSpaceOnUse" x="107" y="976" width="256" height="430">
<path d="M273.13 987.376C280.078 973.931 279.085 976.421 280.574 978.412C282.062 980.404 283.057 989.368 287.026 994.349C290.997 999.329 293.478 1005.8 289.012 1002.32C284.546 998.831 275.115 1008.79 265.686 1013.27C256.259 1017.76 362.959 1144.1 362.959 1275.22C362.958 1488.57 94.5612 1417.92 108.361 1221.44C114.338 1136.36 181.588 1067.93 214.503 1039.27C199.698 1057.13 177.989 1087.74 151.325 1138.11C97.2734 1240.23 158.04 1341.77 212.533 1349.89C364.965 1372.6 284.731 1100.28 240.557 1021.06L237.212 1018.25C239.397 1015.28 241.657 1012.22 242.361 1011.28C243.849 1009.29 242.361 1009.29 238.887 1007.3C235.412 1005.31 234.915 1002.32 235.908 998.831C236.9 995.345 237.894 994.847 246.331 986.879C254.768 978.911 254.768 977.417 253.279 981.401C251.79 985.384 252.286 990.365 253.775 997.835C255.264 1005.3 261.219 1003.81 263.7 1003.81C266.183 1003.81 266.183 1000.82 273.13 987.376Z" fill="white"/>
</mask>
<g mask="url(#mask4_17_23)">
<path fill-rule="evenodd" clip-rule="evenodd" d="M161.42 1230.28C156.271 1245.22 206.415 1430.37 324.136 1383C402.681 1351.4 398.506 1293.74 398.506 1293.74C398.506 1293.74 316.309 1498.06 310.717 1498.06C305.125 1498.06 -38.2809 1368.78 161.42 1230.28Z" fill="#F7F7F7"/>
</g>
<path fill-rule="evenodd" clip-rule="evenodd" d="M377.492 1054.36L206.394 997.015L383.182 1090.43L377.492 1054.36Z" fill="#EC6C2F"/>
<mask id="mask5_17_23" style="mask-type:alpha" maskUnits="userSpaceOnUse" x="206" y="997" width="178" height="94">
<path fill-rule="evenodd" clip-rule="evenodd" d="M377.492 1054.36L206.394 997.015L383.182 1090.43L377.492 1054.36Z" fill="#EC6C2F"/>
</mask>
<g mask="url(#mask5_17_23)">
<path fill-rule="evenodd" clip-rule="evenodd" d="M387.946 1074.4L182.576 990.737L353.083 1016.96L387.946 1074.4Z" fill="#F18348"/>
</g>
<path fill-rule="evenodd" clip-rule="evenodd" d="M559.545 1226.01C561.072 1220.62 591.022 1148.89 675.244 1138.43C759.466 1127.98 828.249 1156.57 840.429 1164.51C911.142 1210.59 721.611 1286.44 559.545 1226.01Z" fill="#4B362C"/>
<path fill-rule="evenodd" clip-rule="evenodd" d="M554.937 1238.04C554.937 1238.04 594.826 1149.29 673.432 1136.3C752.039 1123.31 797.335 1144.28 808.039 1154.39C818.743 1164.5 806.257 1229.99 723.046 1258.52C639.836 1287.06 554.937 1238.04 554.937 1238.04Z" fill="#F1EAEA"/>
<path d="M609.291 1276.92C610.11 1275.58 611.861 1275.15 613.202 1275.97C614.543 1276.79 614.968 1278.54 614.149 1279.88L564.152 1361.82C564.345 1362.09 564.496 1362.4 564.587 1362.74L570.736 1385.75C571.142 1387.27 570.24 1388.83 568.722 1389.23C567.204 1389.64 565.644 1388.74 565.238 1387.22L560.335 1368.87L559.609 1369.27L546.499 1390.76C545.68 1392.1 543.929 1392.52 542.588 1391.7C541.247 1390.89 540.823 1389.13 541.642 1387.79L549.655 1374.66L528.341 1386.2C526.959 1386.95 525.233 1386.43 524.484 1385.05C523.736 1383.67 524.25 1381.94 525.632 1381.19L555.552 1364.99L609.291 1276.92Z" fill="#EC6C2F"/>
<path fill-rule="evenodd" clip-rule="evenodd" d="M442.938 1067.78C442.938 1067.78 508.294 1269.94 620.603 1173.78C713.39 1094.34 805.101 1177.12 805.101 1177.12C805.101 1177.12 801.292 1325.33 617.869 1277.13C434.447 1228.92 425.172 1067.11 425.172 1067.11" fill="#FDFAE9"/>
<mask id="mask6_17_23" style="mask-type:alpha" maskUnits="userSpaceOnUse" x="425" y="1067" width="381" height="220">
<path fill-rule="evenodd" clip-rule="evenodd" d="M442.938 1067.78C442.938 1067.78 508.294 1269.94 620.603 1173.78C713.39 1094.34 805.101 1177.12 805.101 1177.12C805.101 1177.12 801.292 1325.33 617.869 1277.13C434.447 1228.92 425.172 1067.11 425.172 1067.11" fill="#FDFAE9"/>
</mask>
<g mask="url(#mask6_17_23)">
<path fill-rule="evenodd" clip-rule="evenodd" d="M438.845 1126.38C436.328 1133.84 589.758 1354.31 749.485 1248.21C897.979 1149.56 805.425 1271.35 805.425 1271.35C805.425 1271.35 721.185 1368.67 601.404 1340.09C481.623 1311.5 438.845 1126.38 438.845 1126.38Z" fill="#F9F0DF"/>
</g>
<mask id="mask7_17_23" style="mask-type:alpha" maskUnits="userSpaceOnUse" x="425" y="1067" width="381" height="220">
<path fill-rule="evenodd" clip-rule="evenodd" d="M442.938 1067.78C442.938 1067.78 508.294 1269.94 620.603 1173.78C713.39 1094.34 805.101 1177.12 805.101 1177.12C805.101 1177.12 801.292 1325.33 617.869 1277.13C434.447 1228.92 425.172 1067.11 425.172 1067.11" fill="#FDFAE9"/>
</mask>
<g mask="url(#mask7_17_23)">
<path fill-rule="evenodd" clip-rule="evenodd" d="M395.267 1019.61C373.315 1029.44 364.011 1058.68 374.489 1084.91C384.967 1111.14 411.256 1124.44 433.209 1114.61C455.164 1104.78 464.466 1075.54 453.988 1049.31C443.511 1023.08 417.219 1009.78 395.267 1019.61Z" fill="#F9F0DF"/>
</g>
<path fill-rule="evenodd" clip-rule="evenodd" d="M364.05 1034.19C352.137 1057.27 363.419 1086.97 389.25 1100.53C415.081 1114.09 445.679 1106.37 457.593 1083.29C469.507 1060.21 458.225 1030.51 432.393 1016.95C406.563 1003.39 375.964 1011.11 364.05 1034.19Z" fill="#FDFAE9"/>
<path fill-rule="evenodd" clip-rule="evenodd" d="M570.81 1218.58C570.81 1218.58 611.969 1120.42 698.035 1103.87C784.103 1087.33 834.569 1108.88 846.653 1119.61C858.736 1130.33 847.009 1202.26 756.353 1235.92C665.698 1269.59 570.81 1218.58 570.81 1218.58Z" fill="#F9F0DF"/>
<path fill-rule="evenodd" clip-rule="evenodd" d="M562.062 1211.59C563.07 1205.21 586.99 1119.28 677.765 1099.21C768.538 1079.15 847.234 1105.78 861.523 1113.83C944.479 1160.54 746.634 1266.31 562.062 1211.59Z" fill="#594135"/>
<mask id="mask8_17_23" style="mask-type:alpha" maskUnits="userSpaceOnUse" x="557" y="1090" width="319" height="136">
<path fill-rule="evenodd" clip-rule="evenodd" d="M557.062 1210.59C558.07 1204.21 581.99 1118.28 672.765 1098.21C763.538 1078.15 842.234 1104.78 856.523 1112.83C939.479 1159.54 741.634 1265.31 557.062 1210.59Z" fill="#594135"/>
</mask>
<g mask="url(#mask8_17_23)">
<path opacity="0.301961" fill-rule="evenodd" clip-rule="evenodd" d="M822.185 1118.01C785.589 1118.01 755.799 1100.49 754.593 1078.6C749.33 1084.4 746.335 1091.06 746.335 1098.14C746.335 1120.67 776.623 1138.93 813.984 1138.93C851.347 1138.93 881.634 1120.67 881.634 1098.14C881.634 1097.68 881.601 1097.22 881.576 1096.76C870.094 1109.42 847.804 1118.01 822.185 1118.01Z" fill="#47342B"/>
</g>
<mask id="mask9_17_23" style="mask-type:alpha" maskUnits="userSpaceOnUse" x="557" y="1090" width="319" height="136">
<path fill-rule="evenodd" clip-rule="evenodd" d="M557.062 1210.59C558.07 1204.21 581.99 1118.28 672.765 1098.21C763.538 1078.15 842.234 1104.78 856.523 1112.83C939.479 1159.54 741.634 1265.31 557.062 1210.59Z" fill="#594135"/>
</mask>
<g mask="url(#mask9_17_23)">
<path opacity="0.301961" fill-rule="evenodd" clip-rule="evenodd" d="M818.767 1152.88C782.171 1152.88 752.384 1135.36 751.176 1113.46C745.914 1119.27 742.919 1125.93 742.919 1133.01C742.919 1155.54 773.207 1173.8 810.569 1173.8C847.929 1173.8 878.218 1155.54 878.218 1133.01C878.218 1132.54 878.185 1132.09 878.16 1131.63C866.678 1144.29 844.387 1152.88 818.767 1152.88Z" fill="#47342B"/>
</g>
<mask id="mask10_17_23" style="mask-type:alpha" maskUnits="userSpaceOnUse" x="557" y="1090" width="319" height="136">
<path fill-rule="evenodd" clip-rule="evenodd" d="M557.062 1210.59C558.07 1204.21 581.99 1118.28 672.765 1098.21C763.538 1078.15 842.234 1104.78 856.523 1112.83C939.479 1159.54 741.634 1265.31 557.062 1210.59Z" fill="#594135"/>
</mask>
<g mask="url(#mask10_17_23)">
<path opacity="0.301961" fill-rule="evenodd" clip-rule="evenodd" d="M820.136 1184.26C783.539 1184.26 753.751 1166.73 752.543 1144.84C747.28 1150.65 744.285 1157.31 744.285 1164.39C744.285 1186.92 774.573 1205.18 811.934 1205.18C849.297 1205.18 879.585 1186.92 879.585 1164.39C879.585 1163.92 879.552 1163.47 879.527 1163.01C868.044 1175.67 845.755 1184.26 820.136 1184.26Z" fill="#47342B"/>
</g>
<mask id="mask11_17_23" style="mask-type:alpha" maskUnits="userSpaceOnUse" x="557" y="1090" width="319" height="136">
<path fill-rule="evenodd" clip-rule="evenodd" d="M557.062 1210.59C558.07 1204.21 581.99 1118.28 672.765 1098.21C763.538 1078.15 842.234 1104.78 856.523 1112.83C939.479 1159.54 741.634 1265.31 557.062 1210.59Z" fill="#594135"/>
</mask>
<g mask="url(#mask11_17_23)">
<path opacity="0.301961" fill-rule="evenodd" clip-rule="evenodd" d="M789.385 1213.55C752.789 1213.55 723.001 1196.02 721.792 1174.13C716.53 1179.94 713.535 1186.59 713.535 1193.67C713.535 1216.2 743.823 1234.47 781.185 1234.47C818.548 1234.47 848.835 1216.2 848.835 1193.67C848.835 1193.21 848.802 1192.75 848.777 1192.3C837.294 1204.96 815.005 1213.55 789.385 1213.55Z" fill="#47342B"/>
</g>
<path fill-rule="evenodd" clip-rule="evenodd" d="M551.265 1220.19C551.265 1220.19 585.598 1121.11 670.256 1099.17C754.916 1077.24 806.689 1095.06 819.465 1104.79C832.242 1114.52 825.454 1185.89 737.388 1224.93C649.322 1263.98 551.265 1220.19 551.265 1220.19Z" fill="#FDFAE9"/>
<path d="M407.347 1047.58C412.968 1035.29 393.158 1025.29 387.263 1038.19" stroke="black" stroke-width="3.79418" stroke-miterlimit="16" stroke-linecap="round"/>
<path fill-rule="evenodd" clip-rule="evenodd" d="M452.724 1008.53H407.966C405.015 1008.53 402.622 1011.03 402.622 1014.11C402.622 1017.19 405.015 1019.69 407.966 1019.69H440.032C444.22 1019.69 458.472 1008.53 452.724 1008.53Z" fill="#FDFAE9"/>
<path fill-rule="evenodd" clip-rule="evenodd" d="M451.357 1015.51H406.598C403.648 1015.51 401.255 1018 401.255 1021.09C401.255 1024.17 403.648 1026.66 406.598 1026.66H438.663C442.854 1026.66 457.104 1015.51 451.357 1015.51Z" fill="#FDFAE9"/>
<path d="M693.036 1288.86L754.535 1387.88L708.069 1482.72" stroke="black" stroke-width="6.63982" stroke-miterlimit="16" stroke-linecap="round"/>
<path d="M720.369 1457.61L691.668 1472.26" stroke="black" stroke-width="6.63982" stroke-miterlimit="16" stroke-linecap="round"/>
<path d="M719.002 1462.49L727.203 1484.11" stroke="black" stroke-width="6.63982" stroke-miterlimit="16" stroke-linecap="round"/>
<mask id="mask12_17_23" style="mask-type:alpha" maskUnits="userSpaceOnUse" x="686" y="1283" width="75" height="207">
<path d="M693.036 1288.86L754.535 1387.88L708.069 1482.72" stroke="black" stroke-width="6.63982" stroke-miterlimit="16" stroke-linecap="round"/>
<path d="M720.369 1457.61L691.668 1472.26" stroke="black" stroke-width="6.63982" stroke-miterlimit="16" stroke-linecap="round"/>
<path d="M719.002 1462.49L727.203 1484.11" stroke="black" stroke-width="6.63982" stroke-miterlimit="16" stroke-linecap="round"/>
</mask>
<g mask="url(#mask12_17_23)">
<rect x="692.79" y="1290.12" width="87.2662" height="219.114" fill="#ED6D2E"/>
</g>
</svg>
