<svg width="359" height="197" viewBox="0 0 359 197" fill="none" xmlns="http://www.w3.org/2000/svg">
<path d="M13.3771 145.402C11.1585 142.672 10.0491 140.24 10.0491 138.106C10.0491 135.888 11.8838 132.986 15.5531 129.402C17.6865 127.354 19.9478 126.33 22.3371 126.33C24.7265 126.33 28.0545 128.464 32.3211 132.73C33.5158 134.181 35.2225 135.589 37.4411 136.954C39.6598 138.234 41.7078 138.874 43.5851 138.874C51.5211 138.874 55.4891 135.632 55.4891 129.146C55.4891 127.184 54.3798 125.562 52.1611 124.282C50.0278 122.917 47.3398 121.936 44.0971 121.338C40.8545 120.741 37.3558 119.802 33.6011 118.522C29.8465 117.157 26.3478 115.578 23.1051 113.786C19.8625 111.994 17.1318 109.178 14.9131 105.338C12.7798 101.413 11.7131 96.7198 11.7131 91.2584C11.7131 83.7491 14.4865 77.2211 20.0331 71.6744C25.6651 66.0424 33.3025 63.2264 42.9451 63.2264C48.0651 63.2264 52.7158 63.9091 56.8971 65.2744C61.1638 66.5544 64.1078 67.8771 65.7291 69.2424L68.9291 71.6744C71.5745 74.1491 72.8971 76.2398 72.8971 77.9464C72.8971 79.6531 71.8731 81.9998 69.8251 84.9864C66.9238 89.2531 63.9371 91.3864 60.8651 91.3864C59.0731 91.3864 56.8545 90.5331 54.2091 88.8264C53.9531 88.6558 53.4411 88.2291 52.6731 87.5464C51.9905 86.8638 51.3505 86.3091 50.7531 85.8824C48.9611 84.7731 46.6571 84.2184 43.8411 84.2184C41.1105 84.2184 38.8065 84.9011 36.9291 86.2665C35.1371 87.5464 34.2411 89.3811 34.2411 91.7704C34.2411 94.0744 35.3078 95.9518 37.4411 97.4024C39.6598 98.8531 42.3905 99.8344 45.6331 100.346C48.8758 100.858 52.4171 101.669 56.2571 102.778C60.0971 103.802 63.6385 105.082 66.8811 106.618C70.1238 108.154 72.8118 110.842 74.9451 114.682C77.1638 118.437 78.2731 123.088 78.2731 128.634C78.2731 134.181 77.1638 139.088 74.9451 143.354C72.7265 147.536 69.8251 150.778 66.2411 153.082C59.3291 157.605 51.9478 159.866 44.0971 159.866C40.0865 159.866 36.2891 159.397 32.7051 158.458C29.1211 157.434 26.2198 156.197 24.0011 154.746C19.4785 152.016 16.3211 149.37 14.5291 146.81L13.3771 145.402ZM123.262 113.786L114.942 113.274V130.938C114.942 133.242 115.283 134.906 115.966 135.93C116.734 136.954 118.099 137.466 120.062 137.466C122.11 137.466 123.646 137.552 124.67 137.722C125.779 137.808 126.931 138.192 128.126 138.874C130.089 139.984 131.07 142.842 131.07 147.45C131.07 152.826 129.875 156.112 127.486 157.306C126.206 157.904 125.054 158.288 124.03 158.458C123.091 158.544 121.683 158.586 119.806 158.586C110.931 158.586 104.19 156.581 99.5821 152.57C94.9741 148.56 92.6701 141.776 92.6701 132.218V113.274C91.0488 113.53 89.2995 113.658 87.4221 113.658C85.5448 113.658 83.9661 112.933 82.6861 111.482C81.4915 110.032 80.8941 107.557 80.8941 104.058C80.8941 100.56 81.1075 98.0424 81.5341 96.5064C81.9608 94.8851 82.5581 93.7331 83.3261 93.0504C84.6915 91.9411 86.3981 91.3864 88.4461 91.3864L92.6701 91.8984V78.7144C92.6701 76.7518 92.7128 75.3011 92.7981 74.3624C92.9688 73.4238 93.3955 72.3998 94.0781 71.2904C95.1875 69.1571 98.4728 68.0904 103.934 68.0904C109.737 68.0904 113.193 69.6691 114.302 72.8264C114.729 74.1918 114.942 76.3678 114.942 79.3544V91.8984C118.697 91.5571 121.513 91.3864 123.39 91.3864C125.353 91.3864 126.803 91.4718 127.742 91.6424C128.766 91.7278 129.918 92.1118 131.198 92.7944C133.417 93.9038 134.526 97.1891 134.526 102.65C134.526 108.026 133.374 111.312 131.07 112.506C129.79 113.104 128.638 113.488 127.614 113.658C126.675 113.744 125.225 113.786 123.262 113.786ZM284.543 91.8984C286.164 92.4104 287.487 93.3064 288.511 94.5864C289.62 95.7811 290.175 97.7438 290.175 100.474C290.175 103.205 289.364 106.192 287.743 109.434C286.122 112.677 283.775 114.298 280.703 114.298C279.167 114.298 277.674 113.957 276.223 113.274C274.858 112.592 273.023 112.25 270.719 112.25C268.415 112.25 266.239 113.061 264.191 114.682C262.228 116.304 261.247 118.266 261.247 120.57V147.45C261.247 149.413 261.162 150.906 260.991 151.93C260.906 152.869 260.522 153.978 259.839 155.258C258.559 157.477 255.231 158.586 249.855 158.586C245.759 158.586 242.815 157.861 241.023 156.41C239.658 155.216 238.89 153.381 238.719 150.906C238.719 150.053 238.719 148.816 238.719 147.194V102.266C238.719 100.304 238.762 98.8531 238.847 97.9144C239.018 96.8904 239.402 95.7811 239.999 94.5864C241.194 92.2824 244.522 91.1304 249.983 91.1304C255.103 91.1304 258.303 92.1118 259.583 94.0744C260.522 95.4398 260.991 96.8478 260.991 98.2984C261.418 97.7011 262.015 96.9758 262.783 96.1224C263.636 95.2691 265.386 94.1171 268.031 92.6664C270.676 91.2158 272.98 90.4904 274.943 90.4904C276.991 90.4904 278.698 90.6184 280.063 90.8744C281.428 91.0451 282.922 91.3864 284.543 91.8984ZM336.899 124.794L353.923 138.874C356.056 140.666 357.379 142.032 357.891 142.97C358.488 143.909 358.787 144.805 358.787 145.658C358.787 147.706 357.464 150.48 354.819 153.978C351.918 157.562 349.358 159.354 347.139 159.354C345.262 159.354 342.659 158.117 339.331 155.642L338.051 154.746C336.088 153.125 333.059 150.309 328.963 146.298C324.867 142.202 321.752 139.301 319.619 137.594V147.45C319.619 149.413 319.534 150.906 319.363 151.93C319.278 152.869 318.894 153.978 318.211 155.258C317.102 157.477 313.816 158.586 308.355 158.586C302.979 158.586 299.694 157.434 298.499 155.13C297.902 153.85 297.518 152.741 297.347 151.802C297.262 150.778 297.219 149.285 297.219 147.322V70.6504C297.219 68.6878 297.262 67.2371 297.347 66.2984C297.518 65.2744 297.902 64.1224 298.499 62.8424C299.694 60.5384 303.022 59.3864 308.483 59.3864C312.579 59.3864 315.48 60.1118 317.187 61.5624C318.638 62.7571 319.406 64.6344 319.491 67.1944C319.576 67.9624 319.619 69.1571 319.619 70.7784V111.354C321.155 110.074 323.459 107.898 326.531 104.826C329.688 101.754 332.035 99.5784 333.571 98.2984L335.107 97.2744C338.094 94.9704 340.654 93.8184 342.787 93.8184C344.92 93.8184 347.352 95.5678 350.083 99.0664C352.899 102.48 354.307 105.168 354.307 107.13C354.307 109.093 352.728 111.397 349.571 114.042L336.899 124.794Z" fill="#FDFAE9"/>
<path fill-rule="evenodd" clip-rule="evenodd" d="M205.613 109.891L312.13 29.1299L210.159 136.479L205.613 109.891Z" fill="#EC6C2F"/>
<mask id="mask0_0_1" style="mask-type:alpha" maskUnits="userSpaceOnUse" x="205" y="29" width="107" height="108">
<path fill-rule="evenodd" clip-rule="evenodd" d="M205.869 109.697L311.747 29.2595L210.417 136.217L205.869 109.697Z" fill="#EC6C2F"/>
</mask>
<g mask="url(#mask0_0_1)">
<path fill-rule="evenodd" clip-rule="evenodd" d="M203.305 126.154L326.888 19.252L214.072 77.8247L203.305 126.154Z" fill="#F18348"/>
</g>
<path fill-rule="evenodd" clip-rule="evenodd" d="M210.598 92.5418C224.339 105.736 223.428 129.006 208.564 144.519C193.699 160.031 170.509 161.911 156.767 148.717C143.025 135.524 143.935 112.253 158.801 96.7399C173.666 81.2277 196.856 79.3478 210.598 92.5418Z" fill="#FDFAE9"/>
<path d="M183.521 111.71C176.921 104.686 187.99 93.4146 194.912 100.781" stroke="black" stroke-width="3.79418" stroke-miterlimit="16" stroke-linecap="round"/>
<path fill-rule="evenodd" clip-rule="evenodd" d="M142.294 95.0461L173.608 84.4499C175.672 83.7514 177.992 85.0936 178.789 87.4476C179.585 89.8012 178.557 92.2765 176.493 92.975L154.058 100.567C151.128 101.558 138.272 96.4071 142.294 95.0461Z" fill="#FDFAE9"/>
<path fill-rule="evenodd" clip-rule="evenodd" d="M1.79174 75.4478L33.1058 64.8515C35.1701 64.153 37.4902 65.4953 38.2867 67.8492C39.0831 70.2028 38.0549 72.6781 35.9906 73.3766L13.5562 80.9681C10.6257 81.9598 -2.23028 76.8088 1.79174 75.4478Z" fill="#FDFAE9"/>
<path fill-rule="evenodd" clip-rule="evenodd" d="M145.163 100.409L176.478 89.8129C178.542 89.1144 180.79 90.244 181.498 92.3366C182.207 94.4296 181.106 96.6923 179.042 97.3908L156.609 104.982C153.677 105.974 141.143 101.77 145.163 100.409Z" fill="#FDFAE9"/>
<path fill-rule="evenodd" clip-rule="evenodd" d="M4.66136 80.811L35.9759 70.2145C38.0402 69.516 40.2883 70.6457 40.9964 72.7382C41.7047 74.8312 40.6045 77.0939 38.5402 77.7924L16.1067 85.3836C13.1747 86.3758 0.640793 82.1715 4.66136 80.811Z" fill="#FDFAE9"/>
</svg>
