<svg width="848" height="566" viewBox="0 0 848 566" fill="none" xmlns="http://www.w3.org/2000/svg">
<path fill-rule="evenodd" clip-rule="evenodd" d="M157.748 80.7852C157.748 80.7852 271.823 251.254 250.095 327.931C228.366 404.608 199.169 447.054 106.823 423.777C138.737 395.023 203.442 388.542 216.824 302.6C230.923 212.032 157.748 80.7852 157.748 80.7852Z" fill="#FBF5F5"/>
<path fill-rule="evenodd" clip-rule="evenodd" d="M25.5088 340.191L63.0924 296.26L104.774 322.758L56.2582 388.308L25.5088 340.191Z" fill="#C7E59E"/>
<path fill-rule="evenodd" clip-rule="evenodd" d="M146.457 369.479L162.173 308.812L204.54 317.18L188.823 397.373L146.457 369.479Z" fill="#E788A7"/>
<path fill-rule="evenodd" clip-rule="evenodd" d="M70.6086 318.575L147.825 332.521L140.307 367.388L64.457 363.901L70.6086 318.575Z" fill="#E788A7"/>
<path fill-rule="evenodd" clip-rule="evenodd" d="M232.554 386.913L223.673 347.165L180.622 363.203L189.506 413.411L232.554 386.913Z" fill="#E788A7"/>
<path fill-rule="evenodd" clip-rule="evenodd" d="M216.839 335.311L198.39 404.346L161.489 379.242L175.839 296.958L216.839 335.311Z" fill="#8DB4C6"/>
<path fill-rule="evenodd" clip-rule="evenodd" d="M84.2744 379.242L134.157 302.536L166.274 338.797L123.907 391.097L84.2744 379.242Z" fill="#8DB4C6"/>
<path fill-rule="evenodd" clip-rule="evenodd" d="M111.607 354.836L189.507 342.981L188.823 382.728L120.491 393.188L111.607 354.836Z" fill="#E7AABE"/>
<path fill-rule="evenodd" clip-rule="evenodd" d="M75.3909 333.916L159.441 389.702L134.84 439.213L48.0596 391.097L75.3909 333.916Z" fill="#8BC3DD"/>
<path fill-rule="evenodd" clip-rule="evenodd" d="M149.873 419.687L166.957 363.203L206.59 363.901L205.222 409.924L149.873 419.687Z" fill="#8BC3DD"/>
<path fill-rule="evenodd" clip-rule="evenodd" d="M22.0918 324.851L82.2233 322.061V409.227C82.2233 409.227 46.0081 385.518 45.3245 382.728C44.6408 379.939 22.0918 324.851 22.0918 324.851Z" fill="#8DB4C6"/>
<path fill-rule="evenodd" clip-rule="evenodd" d="M43.2744 359.717L70.6089 350.651L121.859 411.319L110.242 423.871L43.2744 359.717Z" fill="#E7AABE"/>
<path fill-rule="evenodd" clip-rule="evenodd" d="M86.3242 406.438L145.773 358.322L192.24 411.319L146.457 435.725L86.3242 406.438Z" fill="#E788A7"/>
<path fill-rule="evenodd" clip-rule="evenodd" d="M259.889 345.77L203.172 305.325L178.572 338.797L251.006 391.097L259.889 345.77Z" fill="#C7E59E"/>
<mask id="mask0_117_16" style="mask-type:alpha" maskUnits="userSpaceOnUse" x="20" y="294" width="241" height="148">
<path fill-rule="evenodd" clip-rule="evenodd" d="M25.5078 340.191L63.0914 296.26L104.774 322.758L56.2572 388.308L25.5078 340.191Z" fill="#C7E59E"/>
<path fill-rule="evenodd" clip-rule="evenodd" d="M146.457 369.479L162.173 308.812L204.54 317.18L188.823 397.373L146.457 369.479Z" fill="#E788A7"/>
<path fill-rule="evenodd" clip-rule="evenodd" d="M70.6086 318.575L147.825 332.521L140.307 367.388L64.457 363.901L70.6086 318.575Z" fill="#E788A7"/>
<path fill-rule="evenodd" clip-rule="evenodd" d="M232.554 386.913L223.673 347.165L180.622 363.203L189.506 413.411L232.554 386.913Z" fill="#E788A7"/>
<path fill-rule="evenodd" clip-rule="evenodd" d="M216.839 335.311L198.39 404.346L161.489 379.242L175.839 296.958L216.839 335.311Z" fill="#8DB4C6"/>
<path fill-rule="evenodd" clip-rule="evenodd" d="M84.2744 379.242L134.157 302.536L166.274 338.797L123.907 391.097L84.2744 379.242Z" fill="#8DB4C6"/>
<path fill-rule="evenodd" clip-rule="evenodd" d="M111.607 354.836L189.507 342.981L188.823 382.728L120.491 393.188L111.607 354.836Z" fill="#E7AABE"/>
<path fill-rule="evenodd" clip-rule="evenodd" d="M75.3899 333.916L159.44 389.702L134.839 439.213L48.0586 391.097L75.3899 333.916Z" fill="#8BC3DD"/>
<path fill-rule="evenodd" clip-rule="evenodd" d="M149.873 419.687L166.957 363.203L206.59 363.901L205.222 409.924L149.873 419.687Z" fill="#8BC3DD"/>
<path fill-rule="evenodd" clip-rule="evenodd" d="M22.0918 324.851L82.2233 322.061V409.227C82.2233 409.227 46.0081 385.518 45.3245 382.728C44.6408 379.939 22.0918 324.851 22.0918 324.851Z" fill="#8DB4C6"/>
<path fill-rule="evenodd" clip-rule="evenodd" d="M43.2734 359.717L70.608 350.651L121.858 411.319L110.241 423.871L43.2734 359.717Z" fill="#E7AABE"/>
<path fill-rule="evenodd" clip-rule="evenodd" d="M86.3242 406.438L145.773 358.322L192.24 411.319L146.457 435.725L86.3242 406.438Z" fill="#E788A7"/>
<path fill-rule="evenodd" clip-rule="evenodd" d="M259.889 345.77L203.172 305.325L178.572 338.797L251.006 391.097L259.889 345.77Z" fill="#C7E59E"/>
</mask>
<g mask="url(#mask0_117_16)">
<rect x="20.8682" y="294.998" width="239.982" height="146.076" fill="white" fill-opacity="0.411765"/>
</g>
<path fill-rule="evenodd" clip-rule="evenodd" d="M174.129 49.1683C181.077 35.7221 180.085 38.2128 181.574 40.2044C183.062 42.1971 184.056 51.1606 188.025 56.1409C191.996 61.121 194.477 67.5948 190.011 64.1087C185.545 60.6233 176.115 70.5829 166.686 75.0648C157.256 79.5472 263.958 205.888 263.958 337.015C263.958 550.36 -4.44029 479.716 9.36023 283.231C15.337 198.156 82.5861 129.723 115.501 101.065C100.696 118.921 78.9879 149.532 52.3241 199.907C-1.72735 302.026 59.0392 403.562 113.532 411.68C265.965 434.388 185.73 162.07 141.557 82.8519L138.212 80.0374C140.397 77.0746 142.656 74.0146 143.36 73.0726C144.848 71.0807 143.36 71.0803 139.886 69.0882C136.411 67.0962 135.915 64.1088 136.907 60.6234C137.899 57.1368 138.893 56.639 147.33 48.6712C155.767 40.7028 155.767 39.2085 154.278 43.1927C152.789 47.1764 153.285 52.1569 154.774 59.6273C156.263 67.0961 162.218 65.603 164.699 65.6028C167.182 65.6028 167.182 62.614 174.129 49.1683Z" fill="white"/>
<mask id="mask1_117_16" style="mask-type:alpha" maskUnits="userSpaceOnUse" x="8" y="38" width="256" height="430">
<path fill-rule="evenodd" clip-rule="evenodd" d="M174.129 49.1678C181.077 35.7216 180.085 38.2123 181.574 40.2039C183.062 42.1967 184.056 51.1601 188.025 56.1404C191.996 61.1205 194.477 67.5943 190.011 64.1082C185.545 60.6228 176.115 70.5824 166.686 75.0643C157.256 79.5467 263.958 205.887 263.958 337.014C263.958 550.36 -4.44029 479.715 9.36023 283.23C15.337 198.156 82.5861 129.722 115.501 101.064C100.696 118.921 78.9879 149.531 52.3241 199.906C-1.72733 302.025 59.0392 403.561 113.532 411.68C265.965 434.387 185.73 162.069 141.557 82.8514L138.212 80.0369C140.397 77.0741 142.656 74.0141 143.36 73.0721C144.848 71.0802 143.36 71.0798 139.886 69.0877C136.411 67.0957 135.915 64.1083 136.907 60.6229C137.899 57.1363 138.893 56.6385 147.33 48.6707C155.767 40.7023 155.767 39.208 154.278 43.1922C152.789 47.1759 153.285 52.1564 154.774 59.6268C156.263 67.0956 162.218 65.6025 164.699 65.6024C167.182 65.6024 167.182 62.6135 174.129 49.1678Z" fill="white"/>
</mask>
<g mask="url(#mask1_117_16)">
<path fill-rule="evenodd" clip-rule="evenodd" d="M178.715 47.3135C178.715 47.3135 179.78 56.1638 182.547 57.5254C185.314 58.8866 179.993 55.9367 176.16 60.9284C172.329 65.9212 177.225 59.1137 176.16 54.8016C175.096 50.49 178.715 47.3135 178.715 47.3135Z" fill="#F1F1F1"/>
</g>
<mask id="mask2_117_16" style="mask-type:alpha" maskUnits="userSpaceOnUse" x="8" y="38" width="256" height="430">
<path fill-rule="evenodd" clip-rule="evenodd" d="M174.129 49.1678C181.077 35.7216 180.085 38.2123 181.574 40.2039C183.062 42.1967 184.056 51.1601 188.025 56.1404C191.996 61.1205 194.477 67.5943 190.011 64.1082C185.545 60.6228 176.115 70.5824 166.686 75.0643C157.256 79.5467 263.958 205.887 263.958 337.014C263.958 550.36 -4.44029 479.715 9.36023 283.23C15.337 198.156 82.5861 129.722 115.501 101.064C100.696 118.921 78.9879 149.531 52.3241 199.906C-1.72733 302.025 59.0392 403.561 113.532 411.68C265.965 434.387 185.73 162.069 141.557 82.8514L138.212 80.0369C140.397 77.0741 142.656 74.0141 143.36 73.0721C144.848 71.0802 143.36 71.0798 139.886 69.0877C136.411 67.0957 135.915 64.1083 136.907 60.6229C137.899 57.1363 138.893 56.6385 147.33 48.6707C155.767 40.7023 155.767 39.208 154.278 43.1922C152.789 47.1759 153.285 52.1564 154.774 59.6268C156.263 67.0956 162.218 65.6025 164.699 65.6024C167.182 65.6024 167.182 62.6135 174.129 49.1678Z" fill="white"/>
</mask>
<g mask="url(#mask2_117_16)">
<path fill-rule="evenodd" clip-rule="evenodd" d="M151.522 51.383C149.785 55.6431 148.048 64.8022 150.944 66.7192C153.839 68.6362 141.292 66.293 145.152 60.329C149.012 54.365 153.26 47.1229 151.522 51.383Z" fill="#F1F1F1"/>
</g>
<mask id="mask3_117_16" style="mask-type:alpha" maskUnits="userSpaceOnUse" x="8" y="38" width="256" height="430">
<path fill-rule="evenodd" clip-rule="evenodd" d="M174.129 49.1678C181.077 35.7216 180.085 38.2123 181.574 40.2039C183.062 42.1967 184.056 51.1601 188.025 56.1404C191.996 61.1205 194.477 67.5943 190.011 64.1082C185.545 60.6228 176.115 70.5824 166.686 75.0643C157.256 79.5467 263.958 205.887 263.958 337.014C263.958 550.36 -4.44029 479.715 9.36023 283.23C15.337 198.156 82.5861 129.722 115.501 101.064C100.696 118.921 78.9879 149.531 52.3241 199.906C-1.72733 302.025 59.0392 403.561 113.532 411.68C265.965 434.387 185.73 162.069 141.557 82.8514L138.212 80.0369C140.397 77.0741 142.656 74.0141 143.36 73.0721C144.848 71.0802 143.36 71.0798 139.886 69.0877C136.411 67.0957 135.915 64.1083 136.907 60.6229C137.899 57.1363 138.893 56.6385 147.33 48.6707C155.767 40.7023 155.767 39.208 154.278 43.1922C152.789 47.1759 153.285 52.1564 154.774 59.6268C156.263 67.0956 162.218 65.6025 164.699 65.6024C167.182 65.6024 167.182 62.6135 174.129 49.1678Z" fill="white"/>
</mask>
<g mask="url(#mask3_117_16)">
<path fill-rule="evenodd" clip-rule="evenodd" d="M159.468 68.4315C162.005 69.6391 163.199 72.2277 162.132 74.2126C161.926 74.5942 161.652 74.9247 161.325 75.2025C162.371 74.9062 163.246 74.2863 163.732 73.3811C164.799 71.3962 163.608 68.8076 161.07 67.6C159.019 66.6241 156.719 66.8493 155.347 68.0182C156.594 67.6652 158.086 67.774 159.468 68.4315Z" fill="#F1F1F1"/>
</g>
<ellipse cx="535.254" cy="488.792" rx="193.623" ry="76.5267" transform="rotate(2.22914 535.254 488.792)" fill="#34A89C"/>
<mask id="mask4_117_16" style="mask-type:alpha" maskUnits="userSpaceOnUse" x="8" y="38" width="256" height="430">
<path fill-rule="evenodd" clip-rule="evenodd" d="M174.13 49.1681C181.078 35.7224 180.085 38.2127 181.574 40.2043C183.062 42.1964 184.056 51.1602 188.026 56.1408C191.997 61.1209 194.478 67.5947 190.012 64.1086C185.546 60.623 176.115 70.5828 166.686 75.0646C157.259 79.5503 263.959 205.89 263.959 337.016C263.958 550.36 -4.43888 479.716 9.36117 283.232C15.3378 198.156 82.5882 129.722 115.503 101.065C100.698 118.921 78.9892 149.531 52.325 199.906C-1.72665 302.026 59.04 403.563 113.533 411.681C265.965 434.389 185.731 162.071 141.557 82.8527L138.212 80.0383C140.397 77.0753 142.657 74.0158 143.361 73.0734C144.849 71.0814 143.361 71.0811 139.887 69.089C136.412 67.097 135.915 64.1087 136.908 60.6232C137.9 57.1367 138.894 56.639 147.331 48.6711C155.768 40.7028 155.768 39.2086 154.279 43.1926C152.79 47.1763 153.286 52.1567 154.775 59.6271C156.264 67.0962 162.219 65.6028 164.7 65.6027C167.183 65.6027 167.183 62.6138 174.13 49.1681Z" fill="white"/>
</mask>
<g mask="url(#mask4_117_16)">
<path fill-rule="evenodd" clip-rule="evenodd" d="M62.4203 292.076C57.2717 307.01 107.415 492.158 225.137 444.791C303.682 413.188 299.506 355.533 299.506 355.533C299.506 355.533 217.309 559.851 211.718 559.851C206.125 559.851 -137.281 430.576 62.4203 292.076Z" fill="#F7F7F7"/>
</g>
<path fill-rule="evenodd" clip-rule="evenodd" d="M278.492 116.153L107.394 58.8066L284.182 152.223L278.492 116.153Z" fill="#EC6C2F"/>
<mask id="mask5_117_16" style="mask-type:alpha" maskUnits="userSpaceOnUse" x="107" y="58" width="178" height="95">
<path fill-rule="evenodd" clip-rule="evenodd" d="M278.492 116.153L107.394 58.8066L284.182 152.223L278.492 116.153Z" fill="#EC6C2F"/>
</mask>
<g mask="url(#mask5_117_16)">
<path fill-rule="evenodd" clip-rule="evenodd" d="M288.946 136.193L83.5762 52.5283L254.082 78.7493L288.946 136.193Z" fill="#F18348"/>
</g>
<path fill-rule="evenodd" clip-rule="evenodd" d="M460.545 287.799C462.072 282.414 492.022 210.681 576.243 200.226C660.465 189.77 729.248 218.364 741.428 226.301C812.142 272.379 622.611 348.233 460.545 287.799Z" fill="#4B362C"/>
<path fill-rule="evenodd" clip-rule="evenodd" d="M455.938 299.834C455.938 299.834 495.827 211.077 574.432 198.087C653.039 185.097 698.335 206.069 709.039 216.18C719.743 226.291 707.258 291.781 624.047 320.314C540.837 348.848 455.938 299.834 455.938 299.834Z" fill="#F1EAEA"/>
<path d="M510.291 328.709C511.11 327.368 512.861 326.944 514.202 327.763C515.543 328.581 515.968 330.332 515.149 331.674L465.152 413.615C465.345 413.885 465.496 414.192 465.587 414.531L471.736 437.543C472.142 439.061 471.24 440.62 469.722 441.026C468.204 441.432 466.644 440.53 466.238 439.012L461.335 420.666L460.609 421.059L447.499 442.549C446.68 443.89 444.93 444.314 443.588 443.496C442.247 442.677 441.823 440.926 442.642 439.585L450.655 426.449L429.341 437.991C427.959 438.739 426.233 438.225 425.484 436.844C424.736 435.462 425.25 433.734 426.632 432.986L456.552 416.785L510.291 328.709Z" fill="#EC6C2F"/>
<path fill-rule="evenodd" clip-rule="evenodd" d="M343.939 129.567C343.939 129.567 409.294 331.73 521.603 235.576C614.391 156.136 706.102 238.91 706.102 238.91C706.102 238.91 702.292 387.121 518.87 338.918C335.447 290.714 326.173 128.901 326.173 128.901" fill="#FDFAE9"/>
<mask id="mask6_117_16" style="mask-type:alpha" maskUnits="userSpaceOnUse" x="326" y="128" width="381" height="221">
<path fill-rule="evenodd" clip-rule="evenodd" d="M343.939 129.567C343.939 129.567 409.294 331.73 521.603 235.576C614.391 156.136 706.102 238.91 706.102 238.91C706.102 238.91 702.292 387.121 518.87 338.918C335.447 290.714 326.173 128.901 326.173 128.901" fill="#FDFAE9"/>
</mask>
<g mask="url(#mask6_117_16)">
<path fill-rule="evenodd" clip-rule="evenodd" d="M339.845 188.174C337.328 195.628 490.759 416.105 650.485 309.999C798.979 211.354 706.426 333.14 706.426 333.14C706.426 333.14 622.185 430.464 502.404 401.879C382.623 373.295 339.845 188.174 339.845 188.174Z" fill="#F9F0DF"/>
</g>
<mask id="mask7_117_16" style="mask-type:alpha" maskUnits="userSpaceOnUse" x="326" y="128" width="381" height="221">
<path fill-rule="evenodd" clip-rule="evenodd" d="M343.939 129.567C343.939 129.567 409.294 331.73 521.603 235.576C614.391 156.136 706.102 238.91 706.102 238.91C706.102 238.91 702.292 387.121 518.87 338.918C335.447 290.714 326.173 128.901 326.173 128.901" fill="#FDFAE9"/>
</mask>
<g mask="url(#mask7_117_16)">
<path fill-rule="evenodd" clip-rule="evenodd" d="M296.268 81.4013C274.316 91.231 265.012 120.467 275.49 146.699C285.968 172.933 312.257 186.229 334.21 176.4C356.165 166.57 365.467 137.335 354.989 111.101C344.512 84.8683 318.22 71.571 296.268 81.4013Z" fill="#F9F0DF"/>
</g>
<path fill-rule="evenodd" clip-rule="evenodd" d="M265.05 95.9817C253.136 119.063 264.419 148.766 290.249 162.326C316.08 175.885 346.678 168.166 358.593 145.085C370.506 122.003 359.225 92.2995 333.393 78.7398C307.562 65.1805 276.964 72.8997 265.05 95.9817Z" fill="#FDFAE9"/>
<path fill-rule="evenodd" clip-rule="evenodd" d="M471.811 280.374C471.811 280.374 512.97 182.209 599.036 165.663C685.103 149.117 735.57 170.672 747.653 181.398C759.736 192.124 748.01 264.048 657.353 297.714C566.698 331.38 471.811 280.374 471.811 280.374Z" fill="#F9F0DF"/>
<path fill-rule="evenodd" clip-rule="evenodd" d="M463.062 273.386C464.07 267.003 487.991 181.068 578.765 161.005C669.538 140.942 748.235 167.576 762.524 175.621C845.479 222.331 647.634 328.105 463.062 273.386Z" fill="#594135"/>
<mask id="mask8_117_16" style="mask-type:alpha" maskUnits="userSpaceOnUse" x="458" y="152" width="319" height="136">
<path fill-rule="evenodd" clip-rule="evenodd" d="M458.062 272.386C459.069 266.003 482.99 180.068 573.764 160.005C664.537 139.942 743.234 166.576 757.523 174.621C840.478 221.331 642.633 327.105 458.062 272.386Z" fill="#594135"/>
</mask>
<g mask="url(#mask8_117_16)">
<path opacity="0.301961" fill-rule="evenodd" clip-rule="evenodd" d="M723.184 179.806C686.588 179.806 656.798 162.28 655.592 140.39C650.329 146.193 647.334 152.851 647.334 159.932C647.334 182.462 677.622 200.726 714.983 200.726C752.346 200.726 782.633 182.462 782.633 159.932C782.633 159.47 782.601 159.013 782.575 158.554C771.093 171.217 748.803 179.806 723.184 179.806Z" fill="#47342B"/>
</g>
<mask id="mask9_117_16" style="mask-type:alpha" maskUnits="userSpaceOnUse" x="458" y="152" width="319" height="136">
<path fill-rule="evenodd" clip-rule="evenodd" d="M458.062 272.386C459.069 266.003 482.99 180.068 573.764 160.005C664.537 139.942 743.234 166.576 757.523 174.621C840.478 221.331 642.633 327.105 458.062 272.386Z" fill="#594135"/>
</mask>
<g mask="url(#mask9_117_16)">
<path opacity="0.301961" fill-rule="evenodd" clip-rule="evenodd" d="M719.767 214.673C683.171 214.673 653.384 197.147 652.175 175.257C646.913 181.06 643.919 187.718 643.919 194.799C643.919 217.329 674.206 235.592 711.568 235.592C748.928 235.592 779.218 217.329 779.218 194.799C779.218 194.337 779.184 193.879 779.159 193.421C767.677 206.083 745.387 214.673 719.767 214.673Z" fill="#47342B"/>
</g>
<mask id="mask10_117_16" style="mask-type:alpha" maskUnits="userSpaceOnUse" x="458" y="152" width="319" height="136">
<path fill-rule="evenodd" clip-rule="evenodd" d="M458.062 272.386C459.069 266.003 482.99 180.068 573.764 160.005C664.537 139.942 743.234 166.576 757.523 174.621C840.478 221.331 642.633 327.105 458.062 272.386Z" fill="#594135"/>
</mask>
<g mask="url(#mask10_117_16)">
<path opacity="0.301961" fill-rule="evenodd" clip-rule="evenodd" d="M721.135 246.052C684.538 246.052 654.75 228.527 653.543 206.636C648.279 212.44 645.284 219.098 645.284 226.179C645.284 248.708 675.572 266.972 712.934 266.972C750.296 266.972 780.584 248.708 780.584 226.179C780.584 225.716 780.552 225.259 780.526 224.8C769.043 237.463 746.754 246.052 721.135 246.052Z" fill="#47342B"/>
</g>
<mask id="mask11_117_16" style="mask-type:alpha" maskUnits="userSpaceOnUse" x="458" y="152" width="319" height="136">
<path fill-rule="evenodd" clip-rule="evenodd" d="M458.062 272.386C459.07 266.003 482.991 180.068 573.765 160.005C664.538 139.942 743.235 166.576 757.524 174.621C840.479 221.331 642.634 327.105 458.062 272.386Z" fill="#594135"/>
</mask>
<g mask="url(#mask11_117_16)">
<path opacity="0.301961" fill-rule="evenodd" clip-rule="evenodd" d="M690.385 275.34C653.789 275.34 624.001 257.815 622.793 235.924C617.53 241.728 614.535 248.385 614.535 255.466C614.535 277.996 644.823 296.26 682.186 296.26C719.548 296.26 749.835 277.996 749.835 255.466C749.835 255.004 749.803 254.547 749.777 254.088C738.294 266.751 716.005 275.34 690.385 275.34Z" fill="#47342B"/>
</g>
<path fill-rule="evenodd" clip-rule="evenodd" d="M452.265 281.978C452.265 281.978 486.597 182.9 571.256 160.965C655.916 139.03 707.689 156.849 720.465 166.577C733.241 176.307 726.454 247.68 638.388 286.723C550.322 325.766 452.265 281.978 452.265 281.978Z" fill="#FDFAE9"/>
<path d="M308.347 109.376C313.967 97.08 294.158 87.0841 288.263 99.9797" stroke="black" stroke-width="3.79418" stroke-miterlimit="16" stroke-linecap="round"/>
<path fill-rule="evenodd" clip-rule="evenodd" d="M353.723 70.3247H308.966C306.015 70.3247 303.622 72.823 303.622 75.9039C303.622 78.9843 306.015 81.4825 308.966 81.4825H341.031C345.22 81.4825 359.472 70.3247 353.723 70.3247Z" fill="#FDFAE9"/>
<path fill-rule="evenodd" clip-rule="evenodd" d="M352.357 77.2988H307.598C304.648 77.2988 302.255 79.7961 302.255 82.8769C302.255 85.9584 304.648 88.4556 307.598 88.4556H339.663C343.854 88.4556 358.104 77.2988 352.357 77.2988Z" fill="#FDFAE9"/>
<path d="M601.687 341.172L663.185 440.193L616.72 535.03" stroke="black" stroke-width="6.63982" stroke-miterlimit="16" stroke-linecap="round"/>
<path d="M629.019 509.926L600.318 524.57" stroke="black" stroke-width="6.63982" stroke-miterlimit="16" stroke-linecap="round"/>
<path d="M627.652 514.807L635.853 536.425" stroke="black" stroke-width="6.63982" stroke-miterlimit="16" stroke-linecap="round"/>
<mask id="mask12_117_16" style="mask-type:alpha" maskUnits="userSpaceOnUse" x="594" y="335" width="75" height="207">
<path d="M601.687 341.172L663.185 440.193L616.72 535.03" stroke="black" stroke-width="6.63982" stroke-miterlimit="16" stroke-linecap="round"/>
<path d="M629.019 509.926L600.318 524.57" stroke="black" stroke-width="6.63982" stroke-miterlimit="16" stroke-linecap="round"/>
<path d="M627.652 514.807L635.853 536.425" stroke="black" stroke-width="6.63982" stroke-miterlimit="16" stroke-linecap="round"/>
</mask>
<g mask="url(#mask12_117_16)">
<rect x="585.451" y="328.312" width="87.2662" height="219.114" fill="#ED6D2E"/>
</g>
</svg>
